<svg xmlns="http://www.w3.org/2000/svg" viewBox="0 0 160 40" width="160" height="40" fill="none"><defs><mask id="mk" maskUnits="userSpaceOnUse" x="0" y="0" width="29.9106" height="29.9106"><rect width="29.9106" height="29.9106" rx="6.72988" fill="#fff"/><path fill="#000" fill-rule="evenodd" d="M7.758 7.01L22.153 7.01L22.153 17.386L10.749 17.386L10.749 22.9L7.758 22.9ZM10.749 10.001L19.161 10.001L19.161 14.394L10.749 14.394Z"/><path fill="#000" d="M13.179 16.077L22.153 22.9L17.211 22.9L13.179 19.835Z"/></mask></defs><g transform="translate(0 5.0447)"><rect width="29.9106" height="29.9106" rx="6.72988" fill="currentColor" mask="url(#mk)"/></g><path fill="currentColor" d="M35.29 29.35L35.29 10.65L42.67 10.65Q44.79 10.65 46.29 11.41Q47.79 12.16 48.58 13.53Q49.37 14.91 49.37 16.76Q49.37 18.62 48.57 19.96Q47.76 21.3 46.24 22.01Q44.72 22.72 42.57 22.72L37.63 22.72L37.63 19.54L41.93 19.54Q43.06 19.54 43.81 19.23Q44.56 18.92 44.93 18.3Q45.3 17.68 45.3 16.76Q45.3 15.83 44.93 15.19Q44.56 14.55 43.81 14.22Q43.05 13.88 41.91 13.88L39.25 13.88L39.25 29.35L35.29 29.35ZM45.39 20.84L50.04 29.35L45.67 29.35L41.13 20.84L45.39 20.84ZM55.83 29.61Q54.49 29.61 53.44 29.14Q52.39 28.67 51.78 27.75Q51.18 26.82 51.18 25.43Q51.18 24.26 51.6 23.47Q52.03 22.67 52.77 22.19Q53.51 21.71 54.46 21.46Q55.4 21.21 56.44 21.11Q57.67 20.99 58.41 20.87Q59.16 20.76 59.5 20.53Q59.84 20.3 59.84 19.85L59.84 19.8Q59.84 18.93 59.3 18.46Q58.75 17.98 57.76 17.98Q56.71 17.98 56.09 18.44Q55.47 18.9 55.27 19.6L51.67 19.31Q51.94 18.03 52.75 17.09Q53.55 16.16 54.82 15.65Q56.1 15.14 57.78 15.14Q58.94 15.14 60.02 15.42Q61.09 15.69 61.92 16.27Q62.76 16.84 63.24 17.74Q63.73 18.64 63.73 19.89L63.73 29.35L60.04 29.35L60.04 27.4L59.93 27.4Q59.59 28.06 59.03 28.56Q58.46 29.05 57.67 29.33Q56.87 29.61 55.83 29.61ZM56.94 26.93Q57.8 26.93 58.46 26.59Q59.12 26.24 59.49 25.66Q59.87 25.08 59.87 24.34L59.87 22.85Q59.68 22.97 59.37 23.06Q59.05 23.16 58.66 23.24Q58.27 23.31 57.88 23.37Q57.48 23.43 57.16 23.48Q56.48 23.58 55.97 23.8Q55.46 24.02 55.17 24.39Q54.89 24.76 54.89 25.3Q54.89 26.1 55.47 26.51Q56.05 26.93 56.94 26.93ZM68.38 34.6Q67.64 34.6 67 34.49Q66.35 34.38 65.93 34.2L66.81 31.3Q67.5 31.51 68.05 31.53Q68.6 31.55 69.01 31.27Q69.41 31 69.67 30.34L69.9 29.75L64.87 15.33L68.96 15.33L71.86 25.62L72 25.62L74.93 15.33L79.05 15.33L73.6 30.86Q73.21 31.99 72.54 32.84Q71.87 33.68 70.85 34.14Q69.82 34.6 68.38 34.6ZM89.78 23.38L89.78 15.33L93.66 15.33L93.66 29.35L89.93 29.35L89.93 26.8L89.78 26.8Q89.31 28.03 88.21 28.78Q87.11 29.53 85.53 29.53Q84.12 29.53 83.06 28.89Q81.99 28.25 81.39 27.07Q80.79 25.9 80.78 24.25L80.78 15.33L84.67 15.33L84.67 23.56Q84.68 24.8 85.34 25.52Q86 26.24 87.1 26.24Q87.8 26.24 88.42 25.92Q89.03 25.6 89.41 24.96Q89.78 24.32 89.78 23.38ZM113.08 17.2L109.08 17.2Q108.97 16.42 108.63 15.81Q108.29 15.21 107.76 14.78Q107.24 14.35 106.55 14.12Q105.86 13.89 105.05 13.89Q103.6 13.89 102.53 14.61Q101.45 15.33 100.86 16.69Q100.26 18.06 100.26 20Q100.26 22 100.86 23.36Q101.46 24.72 102.53 25.41Q103.61 26.11 105.03 26.11Q105.82 26.11 106.5 25.9Q107.18 25.69 107.71 25.28Q108.24 24.87 108.59 24.29Q108.94 23.71 109.08 22.96L113.08 22.98Q112.92 24.26 112.31 25.45Q111.69 26.65 110.65 27.58Q109.62 28.52 108.19 29.06Q106.76 29.6 104.96 29.6Q102.46 29.6 100.49 28.47Q98.53 27.34 97.39 25.19Q96.25 23.05 96.25 20Q96.25 16.94 97.4 14.8Q98.55 12.65 100.53 11.52Q102.5 10.4 104.96 10.4Q106.59 10.4 107.98 10.85Q109.37 11.31 110.45 12.18Q111.53 13.05 112.21 14.31Q112.89 15.57 113.08 17.2ZM121.92 29.62Q119.79 29.62 118.25 28.71Q116.7 27.8 115.86 26.18Q115.02 24.55 115.02 22.39Q115.02 20.22 115.86 18.59Q116.7 16.96 118.25 16.05Q119.79 15.14 121.92 15.14Q124.05 15.14 125.59 16.05Q127.14 16.96 127.98 18.59Q128.82 20.22 128.82 22.39Q128.82 24.55 127.98 26.18Q127.14 27.8 125.59 28.71Q124.05 29.62 121.92 29.62ZM121.94 26.61Q122.91 26.61 123.55 26.06Q124.2 25.5 124.54 24.55Q124.87 23.59 124.87 22.36Q124.87 21.14 124.54 20.18Q124.2 19.22 123.55 18.67Q122.91 18.11 121.94 18.11Q120.96 18.11 120.3 18.67Q119.64 19.22 119.31 20.18Q118.97 21.14 118.97 22.36Q118.97 23.59 119.31 24.55Q119.64 25.5 120.3 26.06Q120.96 26.61 121.94 26.61ZM136.27 29.58Q134.67 29.58 133.38 28.75Q132.09 27.92 131.34 26.31Q130.58 24.7 130.58 22.36Q130.58 19.95 131.36 18.34Q132.13 16.74 133.43 15.94Q134.72 15.14 136.26 15.14Q137.44 15.14 138.23 15.54Q139.02 15.94 139.5 16.53Q139.99 17.12 140.25 17.68L140.37 17.68L140.37 10.65L144.25 10.65L144.25 29.35L140.41 29.35L140.41 27.1L140.25 27.1Q139.97 27.69 139.48 28.26Q138.98 28.83 138.19 29.2Q137.4 29.58 136.27 29.58ZM137.5 26.48Q138.44 26.48 139.09 25.97Q139.75 25.45 140.1 24.52Q140.45 23.59 140.45 22.34Q140.45 21.09 140.1 20.16Q139.76 19.24 139.1 18.74Q138.44 18.24 137.5 18.24Q136.54 18.24 135.89 18.76Q135.23 19.28 134.89 20.2Q134.55 21.12 134.55 22.34Q134.55 23.56 134.89 24.5Q135.24 25.43 135.89 25.96Q136.54 26.48 137.5 26.48ZM153.56 29.62Q151.4 29.62 149.85 28.74Q148.29 27.86 147.45 26.24Q146.61 24.62 146.61 22.4Q146.61 20.24 147.45 18.6Q148.29 16.97 149.82 16.06Q151.35 15.14 153.41 15.14Q154.8 15.14 156 15.59Q157.2 16.03 158.1 16.91Q159 17.8 159.5 19.14Q160 20.47 160 22.26L160 23.33L148.16 23.33L148.16 20.92L156.34 20.92Q156.34 20.08 155.97 19.43Q155.61 18.79 154.97 18.42Q154.32 18.05 153.47 18.05Q152.59 18.05 151.91 18.45Q151.23 18.86 150.84 19.54Q150.46 20.22 150.45 21.05L150.45 23.34Q150.45 24.38 150.84 25.14Q151.23 25.9 151.94 26.31Q152.65 26.72 153.63 26.72Q154.28 26.72 154.82 26.54Q155.35 26.35 155.74 25.99Q156.12 25.62 156.32 25.09L159.92 25.33Q159.64 26.63 158.8 27.59Q157.96 28.55 156.63 29.09Q155.3 29.62 153.56 29.62Z"/></svg>
